# xmcd
#
# Track frame offsets:
# 150
# 15816
# 25691
# 39649
# 53879
# 69871
# 83882
# 96413
# 109508
# 120827
# 137502
# 147355
# 160610
# 172764
# 185778
# 202637
# 215106
# 224239
# 238375
# 249896
# 257223
# 276119
#
# Disc length: 3842 seconds
#
#
# Revision: 3
# Processed by: cddbd v1.5.2PL0 Copyright (c) Steve Scherf et al.
# Submitted via: FreeRIP 2.945 
#
DISCID=300f0016
DTITLE=Rolling Stones - The best
DYEAR=1900
DGENRE=
TTITLE0=Skladba 1
TTITLE1=Skladba 2
TTITLE2=Skladba 3
TTITLE3=Skladba 4
TTITLE4=Skladba 5
TTITLE5=Skladba 6
TTITLE6=Skladba 7
TTITLE7=Skladba 8
TTITLE8=Skladba 9
TTITLE9=Skladba 10
TTITLE10=Skladba 11
TTITLE11=Skladba 12
TTITLE12=Skladba 13
TTITLE13=Skladba 14
TTITLE14=Skladba 15
TTITLE15=Skladba 16
TTITLE16=Skladba 17
TTITLE17=Skladba 18
TTITLE18=Skladba 19
TTITLE19=Skladba 20
TTITLE20=Skladba 21
TTITLE21=Skladba 22
EXTD=
EXTT0=
EXTT1=
EXTT2=
EXTT3=
EXTT4=
EXTT5=
EXTT6=
EXTT7=
EXTT8=
EXTT9=
EXTT10=
EXTT11=
EXTT12=
EXTT13=
EXTT14=
EXTT15=
EXTT16=
EXTT17=
EXTT18=
EXTT19=
EXTT20=
EXTT21=
PLAYORDER=
